# xmcd CD database file
# 
# Track frame offsets:
# 	150
# 	13390
# 	23267
# 	31420
# 	41652
# 	51760
# 	61450
# 	71692
# 	84902
# 	95135
# 	103547
# 	116027
# 	126847
# 	136157
# 	144885
# 	153310
# 
# Disc length: 2254 seconds
# 
# Submitted via: Nero 6, 3, 1, 17
# 
# Revision: 0
# Processed by: cddbd v1.5.1PL0 Copyright (c) Steve Scherf et al.
#
DISCID=d308cc10
DTITLE=Various Artist - The Greatest Western themes
DYEAR=1900
DGENRE=
TTITLE0=The Good, The Bad And The Ugly
TTITLE1=Ghost Riders In The Sky
TTITLE2=A Fist Full Of Dollars (Theme)
TTITLE3=The Man Who Shot Liberty Valance
TTITLE4=The Hanging Tree
TTITLE5=Streets Of Laredo
TTITLE6=Hang 'em High
TTITLE7=High Noon
TTITLE8=High Chaparral
TTITLE9=Bonanza
TTITLE10=For A Few Dollars More
TTITLE11=The Big Country
TTITLE12=The Magnificent Seven
TTITLE13=Shanandoah
TTITLE14=Red River Valley
TTITLE15=Once Upon A Time In The West
EXTD=
EXTT0=
EXTT1=
EXTT2=
EXTT3=
EXTT4=
EXTT5=
EXTT6=
EXTT7=
EXTT8=
EXTT9=
EXTT10=
EXTT11=
EXTT12=
EXTT13=
EXTT14=
EXTT15=
PLAYORDER=
